<svg class="svg_confirm">
<rect x="5.6" y="5.5" class="rect" width="140" height="140"/>
<g>
	<path class="path rect" d="M18.6,78.1L57,108.6c0,0,11.3,9.3,24.5-1.9L134,50.1c0,0-1.1-17.7-17.5-13.5l-46,50.3
		c-0.5,0.6-1.3,0.6-1.9,0.2l-34.9-27C33.7,60.1,11.8,58.8,18.6,78.1z"/>
	<g>
		<path class="path" d="M18.6,80.4C27.8,87.7,37,95,46.2,102.3c8.6,6.8,17.1,15.8,29.2,10.7c4.4-1.9,7-4.9,10.2-8.2
			c4.3-4.5,8.4-9.2,12.7-13.7c9.8-10.7,19.6-21.2,29.5-31.9c1.7-1.8,5.3-4.4,6.2-6.7c0.8-2.1-0.2-6.8-0.8-8.9
			c-2-6.6-8.2-11.9-15.5-9.5c-2.9,0.9-5.1,4.5-7.1,6.8C100.7,51.5,90.9,62.3,80.9,73c-3.2,3.5-6.3,7.5-9.8,10.7
			c-2.5,2.3-4.5-0.5-6.8-2.2c-5.7-4.4-11.5-8.9-17.2-13.3c-2.8-2.1-5.6-4.3-8.2-6.4c-1.4-1.1-3.1-3-4.8-3.7c-2.4-1-6.3,0-8.7,0.8
			c-6,1.9-8.1,6.3-8.1,12.3C17.3,74.5,17.6,77.4,18.6,80.4c-0.5-1.4,0.5-3.2,0-4.6c-1.2-3.6-1.6-6.1,1.4-9.1
			c1.9-1.9,4.5-3.1,7.2-3.7c2.9-0.6,5.6-1.3,7.9,0.5c10.6,7.7,20.7,16.1,31.1,24.1c1.1,0.8,2.3,2.3,3.8,1.9c0.8-0.3,1.5-1.4,2-2
			c3.8-4.2,7.6-8.3,11.4-12.5c9.7-10.6,19.4-21.2,29.1-31.8c1.1-1.2,2.2-3,3.6-4c2.3-1.6,6.7-1.2,9.3-0.3c5.4,1.9,8.2,8,8.6,13.3
			c0-1.5,0-3.1,0-4.5C119.8,63.3,105.5,78.6,91.2,94c-6.6,7-12.9,16.2-23.7,15.8c-8.6-0.3-15.3-7.5-21.6-12.5
			C36.8,90.2,27.7,83,18.6,75.8C19.3,76.4,17.9,79.9,18.6,80.4z"/>
	</g>
</g>
</svg>
