<svg class="logo_svg">
<path class="logo_nivelk" d="M223.4,5c16.6,7.1,23.1,23.1,17.9,44.8c-3,14.9-6.8,29.3-10.3,44c-0.3,1.6-0.5,3.3-1.4,6.8c3.5-2.4,5.4-3.8,7.6-5.4
	c25.3-19.3,51.3-37.7,75.8-58.4c19-16,41-21.7,64.9-23.6c6-0.5,11.9-0.8,18.5,0.3c-32.3,25.8-64.4,51.3-97.2,77.7
	c28.2,32.6,56.2,64.6,84.2,96.9c-26.6-7.3-53.8-12.2-73.3-33.9c-11.9-13.3-24.4-26.1-37.2-39.6c-34.8,23.9-69.2,47.2-105.9,72.5
	c13.6-49.4,26.3-96.9,39.4-144.7c-3-0.3-5.2-0.5-7.3-0.5c-39.1,0-78.2,0-117.3-0.3c-6.2,0-8.7,1.6-10,7.9
	c-7.3,33.1-15.2,66.3-22.5,99.7C43.9,172.3,27.4,187.5,4,191c0-1.1,0-2.2,0-3.3c0.5-1.6,1.4-3,1.9-4.6
	c13.3-55.7,26.6-111.3,39.6-167c1.4-6.5,4.3-7.9,10-7.9c41.3-0.5,82.8-1.4,124.1-2.2c10.9,0.3,22.3-0.5,33.7-1.1
	C216.9,5,220.1,5,223.4,5z"/>
<text transform="matrix(1 0 0 1 58.0999 241.8662)" class="text">NIVELK</text>
</svg>
