<svg class="logo_svg">
<path class="logo_nivelk" d="M81.8,1.4c6.1,2.6,8.5,8.5,6.6,16.5c-1.1,5.5-2.5,10.8-3.8,16.2c-0.1,0.6-0.2,1.2-0.5,2.5c1.3-0.9,2-1.4,2.8-2
	c9.3-7.1,18.9-13.9,27.9-21.5c7-5.9,15.1-8,23.9-8.7c2.2-0.2,4.4-0.3,6.8,0.1c-11.9,9.5-23.7,18.9-35.8,28.6
	c10.4,12,20.7,23.8,31,35.7c-9.8-2.7-19.8-4.5-27-12.5c-4.4-4.9-9-9.6-13.7-14.6c-12.8,8.8-25.5,17.4-39,26.7
	c5-18.2,9.7-35.7,14.5-53.3c-1.1-0.1-1.9-0.2-2.7-0.2c-14.4,0-28.8,0-43.2-0.1c-2.3,0-3.2,0.6-3.7,2.9c-2.7,12.2-5.6,24.4-8.3,36.7
	C15.7,63,9.6,68.6,1,69.9c0-0.4,0-0.8,0-1.2c0.2-0.6,0.5-1.1,0.7-1.7c4.9-20.5,9.8-41,14.6-61.5c0.5-2.4,1.6-2.9,3.7-2.9
	c15.2-0.2,30.5-0.5,45.7-0.8c4,0.1,8.2-0.2,12.4-0.4C79.4,1.4,80.6,1.4,81.8,1.4z"/>
<text transform="matrix(1 0 0 1 142.6 67.8667)" class="text">NIVELK</text>
</svg>
