<svg>
<style type="text/css">
	.st0{fill:#FFFFFF;}
	.st1{font-family:'Arial';}
	.st2{font-size:30.1389px;}
</style>
<g>
	<path class="st0" d="M37.7,45.1c-6.2-5.4-8.6-17.8-2-25.6c-4.6-2.1-11.9-3.2-17.6,2.1c0.1-0.2,0.2-0.3,0.3-0.4c2.3-2.8,5.4-4,9-4.1
		c4.1-0.1,7.9,1,11.6,2.5c6.4,2.7,12,6.7,17.4,11c2.3,1.8,4.7,3.5,7.2,5.1c4.4,2.8,9.1,3.3,14,1.5c0.8-0.3,1.6-0.4,2.4-0.6
		c0.3-0.1,0.6-0.1,0.9,0c1.3,0.2,1.8,0.9,1.4,2.2c-0.3,0.9-0.7,1.9-1.2,2.7C77,46.9,71.8,50.9,65,52.7c-1.7,0.4-3.4,0.4-5.2,0.6
		c-0.3,0-0.7-0.1-1-0.2c2.4,0.1,4.8-0.2,7-1c5.5-1.9,10.1-5.2,13.7-9.8c0.6-0.7,1-1.5,1.4-2.4c0.5-1.2-0.2-2.1-1.5-2.1
		c-0.7,0-1.4,0.1-2,0.3c-5.9,1.9-11.2,0.7-16.3-2.6c-0.8-0.5-1.6-1.1-2.5-1.8c0,0.3,0,0.4,0,0.6c0.1,2.3-0.2,4.5-1,6.6
		c-0.4,1.1-0.4,2.4-0.8,3.6c-0.6,2.1-1.6,3.9-3.4,5.3c-0.2,0.2-0.3,0.5-0.3,0.8c0,1.8,0,3.6-0.1,5.4c0,0.3,0,0.6,0,0.9
		c-0.1,0-0.2,0-0.3,0.1c-0.1-0.3-0.4-0.7-0.4-1c0.1-3.2,0-6.4,0.7-9.6c0.1-0.6,0.3-1.2,0.6-1.7c-0.2,1.6-0.4,3.3-0.7,4.9
		c0.1,0,0.1,0,0.2,0.1c2.2-1.9,3.2-4.3,3.5-7.1c-0.1-0.1-0.1-0.1-0.2-0.2c-0.1,0.2-0.2,0.5-0.3,0.7c-0.1-0.1-0.2-0.1-0.2-0.2
		c1.1-1,0.9-2.3,1-3.8c-0.6,0.9-1,1.6-1.5,2.3c-1.3,2.1-3,3.8-4.8,5.3c-1.6,1.4-3.3,1.5-5,0.3c-2.3-1.5-4.3-3.5-5.9-5.7
		c-0.3-0.3-0.4-0.8-0.5-1.2c1.5,2.6,3.7,4.6,6,6.4c1.7,1.4,3.6,1.3,5.3-0.1c2.6-2.1,4.7-4.6,6-7.7c0.3-0.7,0.4-1.4,0.5-2.1
		c0.1-0.7-0.1-1.4,0.1-2.1c0.3-1.5-0.3-2.4-1.6-3.1c-0.3-0.1-0.5-0.3-0.8-0.6c-0.8,0.9-1.8,1.5-3,1c1-0.1,2.1-0.1,2.7-1.3
		c-0.4-0.1-0.8-0.2-1-0.3c-0.3,0.5-0.5,0.9-0.8,1.2c-0.3-0.2-0.7-0.4-1-0.7c0-0.1,0.1-0.1,0.1-0.2c-0.3,0.1-0.5,0.3-0.8,0.4
		c0-0.1-0.1-0.1-0.1-0.2c0.6-0.5,1.2-1,1.8-1.5c0,0,0-0.1-0.1-0.1c-0.6,0.3-1.1,0.7-1.7,1c0,0-0.1-0.1-0.1-0.1
		c0.4-0.4,0.9-0.8,1.3-1.2c-1,0.2-1.5,1-2.2,1.6c-0.2-0.5-0.2-0.6,0.5-1.1c0.4-0.3,0.8-0.6,1.2-0.9c-0.4-0.3-0.6-0.5-1-0.8
		c-0.2,0.3-0.4,0.5-0.6,0.8c0,0-0.1,0-0.1-0.1c0.1-0.2,0.3-0.5,0.4-0.7c-1.2,1.1-2.4,2.3-4.1,2.7c0.8-0.5,1.5-0.9,2.1-1.4
		c0.5-0.4,0.8-0.8,1.2-1.3c0.1-0.2,0.2-0.7,0.1-0.7c-0.3-0.1-0.7-0.2-0.9-0.1c-1.5,0.7-2.9,1.4-4.4,2.2c0.1,0.2,0.4,0.5,0.7,0.9
		c-0.7-0.4-1.2-0.8-1.8-1c-0.6-0.2-1.3,0-2-0.2c0.6,0,1.1-0.1,1.7-0.1c0-0.1,0-0.2,0-0.3c-1.1-0.3-2.1-0.5-3.3-0.8
		c1.3-0.1,2.5,0.3,3.6,0.7c0.3,0.1,0.8,0.2,1.1,0.1c1.1-0.4,2.2-0.9,3.4-1.5c0.3-0.1,0.5-0.4,0.8-0.7c-0.6-0.5-1.2-0.9-1.8-1.2
		c-0.2-0.1-0.5,0-0.7,0.1c-0.9,0.5-1.7,1-2.6,1.4c0.9-0.6,1.8-1.2,2.8-1.8c-0.5-0.4-0.9-0.6-1.3-0.9c-0.4-0.3-0.7-0.2-1.1,0
		c-0.9,0.6-1.8,1.1-2.8,1.5c1-0.7,2-1.3,3.1-2c-1-0.6-1.8-1.1-2.6-1.5c-0.2-0.1-0.5,0-0.6,0.1c-1.3,1.5-2.7,2.9-3.8,4.5
		c-1.1,1.5-1.6,3.3-1.3,5.3c-0.4-1.2-0.3-2.4,0.1-3.6c0.6-1.6,1.6-2.9,2.7-4c0.8-0.8,1.7-1.5,2.5-2.2c-0.1-0.1-0.1-0.3-0.2-0.4
		c-1-0.4-1.9-0.9-2.9-1.3c-0.1,0-0.3,0.1-0.4,0.2c-1.7,2.5-3.2,5.1-3.4,8.3c-0.2,3.9,1.2,7.4,3.5,10.5c1.2,1.6,2.6,3.1,4,4.7
		c0.2,0.3,0.5,0.5,0.9,0.9c-2.4-1-6.5-6.5-7.9-10.2c-1.6-4.3-1.1-8.5,0.6-12.7c-1.5,1.7-2.3,3.8-2.6,6c-0.8,6.2,0.8,11.8,4.7,16.6
		C37.3,44.6,37.5,44.8,37.7,45.1z M57.7,33.1c0,2.2,0,4.3,0,6.5C58.5,38.2,58.4,33.8,57.7,33.1z"/>
	<path class="st0" d="M62,18.5c-1.9-1-3.8-2-5.8-2.9c-2.8-1.2-5.7-2.3-8.8-2.3c-1.4,0-2.8,0.3-4.2,0.4c-0.3,0-0.6,0.2-0.9,0.2
		c-0.9,0.1-1.8,0.1-2.4-0.7c-0.6-0.8-0.4-1.8,0-2.6c0.7-1.4,2-2.3,3.4-2.9c2.6-1.1,5.1-0.9,7.6,0.1c3.6,1.5,6.4,4.1,8.7,7.2
		c0.8,1.1,1.6,2.3,2.4,3.4C62.1,18.5,62.1,18.5,62,18.5z"/>
	<path class="st0" d="M25.2,16c0.6-0.1,1.2-0.2,1.8-0.3c7.9-1.2,15.1,0.8,21.7,5.1c4,2.6,7.7,5.5,11.6,8.3c3.1,2.2,6.3,4.4,10,5.6
		c1.9,0.6,3.8,0.9,5.8,1.4c-0.6,0.1-1.3,0.3-2,0.4c-4.1,0.6-7.7-0.7-11-2.9c-3.6-2.4-7-5.1-10.5-7.7c-4.2-3.2-8.7-6-13.7-7.8
		c-4.1-1.5-8.4-2.2-12.8-2.1c-0.3,0-0.6,0-0.8,0C25.2,16.1,25.2,16.1,25.2,16z"/>
	<path class="st0" d="M62.1,50.8c2.1-0.9,4.2-1.6,6.3-2.6c1.1-0.5,2-1.2,3-1.9c0.3-0.2,0.5-0.5,0.8-0.9c0.7-1,0.5-1.6-0.8-1.7
		c-1.9-0.2-3.7-0.5-5.5-1.3c-2.2-1-4.1-2.6-5.5-4.7c0.3,0.2,0.6,0.3,1,0.5c2.1,1.1,4.2,2.3,6.6,2.4c1.9,0.1,3.8-0.2,5.6-0.4
		c1.1-0.1,2.1-0.3,3.2-0.4c0.4,0,0.8,0,1.2,0.1c0.6,0.2,0.9,0.7,0.6,1.3c-0.5,0.9-0.9,1.8-1.6,2.5c-3,3.2-6.8,5.3-11,6.5
		c-1.3,0.4-2.6,0.6-3.9,0.8C62.1,50.9,62.1,50.9,62.1,50.8z"/>
	<path class="st0" d="M73.4,70.2c1.3-0.3,2.5-0.3,3.4-1.3c0-0.1,0-0.2,0-0.3c-0.5-0.1-1.1-0.1-1.6-0.2c-0.6,0-1.1,0-1.7-0.1
		c1.1-0.3,2.3-0.4,3.4,0c0.5,0.2,0.4,0.7,0,0.9c-0.6,0.4-1.3,0.8-2.1,1c-2.5,0.4-5.1,0.8-7.7,0.9c-7.3,0.3-14.6-0.6-21.7-2.1
		c-6.5-1.3-12.9-3.1-19-5.9c-2.1-1-4.1-2.1-5.7-3.8c-0.6-0.7-1.2-1.5-1.7-2.3c-0.5-0.9-0.4-1.5,0.4-2.3c0.7-0.6,2.3-0.9,3.3-0.6
		c-0.6,0.1-1.2,0.2-1.7,0.3c-1.2,0.3-1.7,1.2-1,2.3c0.4,0.7,1,1.4,1.6,1.9c2.1,1.8,4.6,2.9,7.2,3.9c5.4,2.1,10.9,4.2,16.6,5.4
		c6.5,1.4,13.2,2.3,19.8,2.5c2.3,0.1,4.6-0.2,6.9-0.3c0.2,0,0.4-0.1,0.7-0.1c0.3-3.2-2.2-6.2-5.4-6.6c-0.5-0.1-1-0.2-1.5-0.3
		c0-0.1,0-0.3,0-0.4c0.4,0,0.9-0.1,1.3,0c3.1,0.5,5.2,2.4,5.8,5.6C73.2,69,73.3,69.5,73.4,70.2z"/>
	<path class="st0" d="M7.6,74.1c2,0.1,3.9-0.2,5.9,0.3c2.7,0.8,4.2,3.2,4,6.5c-0.1,1.4-0.4,2.7-1.2,3.8c-1,1.6-2.5,2.6-4.5,2.5
		c-1.3,0-2.5,0-3.8,0c-0.4,0-0.6-0.1-0.6-0.6c0-4.1,0-8.1,0-12.2C7.5,74.3,7.6,74.2,7.6,74.1z M9.6,80.7C9.6,80.7,9.6,80.7,9.6,80.7
		c0,1.5,0,3,0,4.5c0,0.3,0.3,0.8,0.5,0.9c2,0.8,4.5-0.4,5-2.5c0.3-1.3,0.4-2.6,0.2-4c-0.3-2.9-1.9-4.3-4.7-4.3c-0.8,0-1.1,0.3-1.1,1
		C9.6,77.8,9.6,79.2,9.6,80.7z"/>
	<path class="st0" d="M70.8,87.2c-0.7,0-1.3,0-2,0c0-1.9,0-3.8,0-5.7c-1.4,0-2.7,0-4,0c0,1.9,0,3.8,0,5.7c-0.7,0-1.3,0-2,0
		c0-0.3,0-0.5,0-0.8c0-3.8,0-7.6,0-11.4c0-0.7,0.2-0.9,0.9-0.9c0.3,0,0.7,0,1.2,0c0,2.2,0,4.3,0,6.4c1.4,0,2.6,0,4,0
		c0-2.1,0-4.2,0-6.4c0.7,0,1.3,0,2,0C70.8,78.5,70.8,82.8,70.8,87.2z"/>
	<path class="st0" d="M31.4,87.1c-0.7,0-1.3,0-2,0c0.1-2-0.3-4,0.3-5.9c0.6-2.1,2.6-3,5.1-2.6c0.8,0.1,1.6,0.6,2.5,1
		c1.1-1.1,2.6-1.3,4.3-1c1.5,0.2,2.7,1,2.9,2.5c0.3,2,0.3,4,0.4,6.1c-0.8,0-1.4,0-2.1,0c0-0.9,0-1.7,0-2.5c0-1.1,0-2.2-0.1-3.2
		c-0.1-1.3-0.8-1.9-2.1-1.9c-1.4,0-2.2,0.6-2.4,1.9c-0.1,1.3-0.1,2.6-0.1,3.9c0,0.2,0,0.4,0,0.6c0,1.5,0.2,1.3-1.4,1.3
		c-0.5,0-0.7-0.2-0.7-0.7c0-1.3,0-2.7,0-4c0-0.3,0-0.7-0.1-1c-0.2-1.3-0.8-1.9-1.9-2c-1.5-0.1-2.4,0.5-2.5,1.9
		c-0.2,1.5-0.1,3-0.1,4.4C31.4,86.3,31.4,86.7,31.4,87.1z"/>
	<path class="st0" d="M65.3,18.6c-0.2-0.3-0.5-0.6-0.7-1c-1.5-3.1-3.3-6-5.8-8.4c-5.3-5.1-11.9-5.8-18.1-2c-0.4,0.2-0.7,0.5-1.1,0.7
		C39.3,8,38.7,8.1,38.7,8c-0.1-0.4-0.2-0.8-0.1-1.2c0.1-0.3,0.5-0.5,0.8-0.7C45.7,1.5,52.6,2,58.5,7.4c3.3,3,5.4,6.7,7,10.9
		c0,0.1,0,0.2,0,0.3C65.4,18.6,65.4,18.6,65.3,18.6z"/>
	<path class="st0" d="M55.1,87.2c-0.5,0-1,0-1.5,0c-0.4,0-0.5-0.2-0.5-0.6c0-0.3,0-0.6-0.1-0.9c-0.9,1.6-2.2,1.7-3.7,1.4
		c-1.6-0.3-2.6-1.3-2.9-2.8c-0.2-0.8-0.2-1.6-0.1-2.4c0.2-2,1.5-3.2,3.5-3.3c0.5,0,1,0,1.5,0c2.2,0.2,3.5,1.4,3.7,3.6
		C55.2,83.7,55.1,85.4,55.1,87.2z M48.3,82.8C48.3,82.8,48.2,82.8,48.3,82.8c0,0.5,0,0.9,0,1.4c0.2,1.2,0.8,1.8,1.9,1.9
		c1.1,0.2,2-0.3,2.5-1.4c0.5-1.3,0.6-2.6,0.1-3.9c-0.2-0.5-0.7-1-1.2-1.2c-1.8-0.7-3.3,0.2-3.4,2.1C48.2,82.1,48.3,82.5,48.3,82.8z"
		/>
	<path class="st0" d="M81.3,87.1c-0.8,0-1.4,0-2.1,0c0-0.5,0-0.9,0-1.4c-0.7,0.9-1.5,1.5-2.6,1.5c-3.1,0-4.9-2.3-4.2-5.5
		c0.4-2,1.6-3,3.7-3.2c0.5,0,1.1,0,1.6,0c1.8,0.2,3.1,1.1,3.3,2.9C81.3,83.3,81.2,85.2,81.3,87.1z M74.4,82.8
		C74.4,82.8,74.3,82.8,74.4,82.8c0,0.4,0,0.9,0,1.3c0.2,1.3,0.8,1.9,2,2.1c1.1,0.1,2-0.4,2.5-1.5c0.5-1.2,0.5-2.4,0.2-3.6
		c-0.2-0.9-0.9-1.4-1.9-1.5c-1.7-0.2-2.6,0.6-2.8,2.3C74.3,82.1,74.4,82.4,74.4,82.8z"/>
	<path class="st0" d="M27.9,87.1c-0.7,0-1.3,0-2,0c0-0.5,0-0.9,0-1.4c-0.1,0-0.2,0-0.2,0c-0.9,1.6-2.4,1.6-3.9,1.2
		c-1.5-0.4-2.4-1.4-2.7-2.9c-0.1-0.6-0.2-1.2-0.1-1.8c0.2-2.3,1.5-3.6,3.8-3.8c0.6,0,1.2,0,1.8,0.1c1.9,0.3,2.9,1.5,3.2,3.6
		c0,0.3,0,0.7,0.1,1C27.9,84.4,27.9,85.7,27.9,87.1z M21,82.8C21,82.8,21,82.8,21,82.8c0,0.4,0,0.8,0,1.1c0.2,1.4,0.8,2.1,2.1,2.2
		c1.2,0.1,2.1-0.5,2.4-1.8c0.2-0.9,0.3-1.9,0.2-2.8c-0.2-1.5-1-2.1-2.4-2.1c-1.4,0-2.2,0.7-2.3,2.2C21,82.1,21,82.5,21,82.8z"/>
	<path class="st0" d="M45.1,96.6c-0.4,0-0.7,0-1.2,0c0-0.7,0-1.5,0-2.2c0-0.4,0-0.7,0-1.1c-0.1-0.7-0.4-1.1-1.2-1.1
		c-0.8,0-1.3,0.3-1.4,1.1c-0.1,0.8,0,1.6,0,2.4c0,1,0,1-1.1,0.8c0-1-0.1-2,0-3c0.3-1.8,2.3-2.6,4-1.7c0.2,0.1,0.3,0.2,0.4,0.1
		c0.7-0.2,1.4-0.4,2.2-0.5c1.4,0,2.2,0.8,2.3,2.2c0.1,0.8,0,1.6,0,2.4c0,0.4-0.2,0.5-0.6,0.5c-0.4,0-0.6,0-0.6-0.5
		c0-0.8,0-1.7,0-2.5c-0.1-1.1-0.4-1.4-1.3-1.4c-0.9,0-1.3,0.5-1.4,1.5C45,94.6,45.1,95.5,45.1,96.6z"/>
	<path class="st0" d="M92.7,78.5c0,0.3,0,0.5,0,0.9c-0.3,0-0.6,0-0.9,0c-1.8,0-2.9,1-2.9,2.8c0,1.5,0,2.9,0,4.4c0,0.2,0,0.3,0,0.6
		c-0.6,0-1.3,0-2.1,0c0.1-1.9,0.1-3.7,0.3-5.5c0.2-1.3,1.1-2.2,2.3-2.7C90.4,78.5,91.5,78.4,92.7,78.5z"/>
	<path class="st0" d="M83.1,78.4c0.7,0,1.3,0,2,0c0,0.3,0,0.5,0,0.8c0,2.4,0,4.8,0,7.2c0,0.6-0.2,0.9-0.8,0.8c0,0-0.1,0-0.2,0
		c-1.1,0-1.1,0-1.1-1.1c0-2.2,0-4.5,0-6.7C83.1,79.1,83.1,78.8,83.1,78.4z"/>
	<path class="st0" d="M60.5,20.8c1.4,2.4,2.8,4.7,4.9,6.6c2,1.9,4.4,3.4,6.9,4.4c2.6,1,5.2,1.8,7.8,2.8c-4.6-0.7-9.1-1.8-13-4.7
		C64,27.6,62.2,24.3,60.5,20.8z"/>
	<path class="st0" d="M20.4,91.5c1.5,0,2.5,1,2.5,2.5c0,1.6-1,2.5-2.5,2.5c-1.6,0-2.6-1-2.6-2.5C17.8,92.5,18.8,91.5,20.4,91.5z
		 M21.8,93.9c-0.1-0.6,0-1.4-0.8-1.7c-0.9-0.3-1.7,0-1.9,0.8c-0.4,1.3,0,2.7,0.9,2.9c0,0,0.1,0,0.2,0C21.3,96.2,21.8,95.5,21.8,93.9
		z"/>
	<path class="st0" d="M20.1,22.8c3.4-3.7,8.4-4.6,12.6-2.4C28.3,19.9,24,20.5,20.1,22.8z"/>
	<path class="st0" d="M60.6,94.4c-1.2,0-2.4,0-3.6,0c0,0.8,0.3,1.3,0.9,1.5c0.5,0.2,1.1,0.1,1.7,0.1c-0.5,0.7-1.6,0.8-2.5,0.2
		c-1.1-0.6-1.5-2-1.1-3.1c0.4-1.1,1.7-1.8,2.8-1.5C60,91.9,60.7,92.9,60.6,94.4z M56.9,93.7c0.9,0,1.7,0,2.5,0
		c-0.1-1-0.4-1.4-1.1-1.5C57.6,92.1,57.1,92.6,56.9,93.7z"/>
	<path class="st0" d="M68.8,91.3c0.5,0.3,0.8,0.4,1.2,0.6c-0.3,0.2-0.7,0.3-1.1,0.5c0,1.3,0,2.7,0,4.2c-0.4,0-0.7,0-1.1,0
		c0-1.4,0-2.9,0-4.4c-0.3,0-0.6,0-0.9-0.1c-0.1,0-0.2-0.2-0.4-0.3c0.1-0.1,0.2-0.2,0.4-0.3c0.2-0.1,0.5,0,0.8-0.1c0-0.8,0-1.6,0-2.4
		c0.4,0,0.7,0,1.1,0C68.8,89.8,68.8,90.6,68.8,91.3z"/>
	<path class="st0" d="M19.6,38.5c2.1,3.9,5,6.3,9.5,6.8C24.5,46.8,20.6,43.3,19.6,38.5z"/>
	<path class="st0" d="M11,96.1c-0.9,0.8-2.8,0.8-3.7,0c-0.9-0.8-1.2-2.2-0.5-3.4c0.6-1.1,2-1.6,3.2-1.1c0.4,0.2,0.7,0.5,1.2,0.8
		c-0.3,0.3-0.5,0.4-0.7,0.6c-0.5-0.8-1.1-1-1.9-0.7c-0.7,0.2-1,0.8-1,1.5c-0.1,0.9,0.3,1.6,1.1,1.9C9.3,96,10.2,96,11,96.1z"/>
	<path class="st0" d="M93.3,92.6c-0.2,0.2-0.4,0.3-0.7,0.5c-0.4-0.7-1-1-1.8-0.8c-0.7,0.2-1,0.7-1.1,1.4c-0.1,0.9,0.2,1.6,1,1.9
		c0.6,0.2,1.2,0.3,1.8,0.4c0.2,0,0.5,0,0.8-0.1c-0.9,1-3,1-4,0.1c-1-1-0.9-2.8,0.1-3.8C90.5,91.2,92.3,91.4,93.3,92.6z"/>
	<path class="st0" d="M33.1,92.4c-0.5-0.1-1-0.3-1.5-0.3c-0.3,0-0.7,0.3-1,0.5c0.2,0.3,0.4,0.6,0.7,0.8c0.4,0.3,0.9,0.3,1.3,0.6
		c0.3,0.3,0.7,0.8,0.7,1.2c0,0.4-0.5,1.1-0.9,1.2c-0.8,0.2-1.6,0.1-2.4,0.1c-0.1,0-0.2-0.3-0.4-0.5c0.7,0.1,1.3,0.2,1.9,0.1
		c0.3,0,0.7-0.4,0.8-0.6c0-0.2-0.3-0.6-0.6-0.8c-0.4-0.3-0.8-0.3-1.3-0.6c-0.5-0.3-1-0.8-0.8-1.4c0.2-0.4,0.6-1,1-1.1
		c0.7-0.2,1.4,0,2.1,0.1c0.2,0,0.3,0.4,0.5,0.6C33.2,92.3,33.2,92.3,33.1,92.4z"/>
	<path class="st0" d="M16.8,37.3c0.2,0.5,0.3,1,0.5,1.5c1,3.3,2.7,6.1,5.9,7.8c1.5,0.8,3.1,1.1,4.8,1.3c0.3,0,0.5,0.1,0.7,0.4
		c-2.3,0.2-4.3-0.4-6.2-1.6c-3.5-2.2-4.9-5.6-5.8-9.4C16.7,37.3,16.8,37.3,16.8,37.3z"/>
	<path class="st0" d="M21.8,58.4c-0.1-3.3,1.9-5.2,5.1-5.1c3,0.1,6,0.8,8.8,1.7c0.1,0,0.3,0.1,0.4,0.2c0,0,0,0.1,0.1,0.3
		c-0.5-0.1-0.9-0.2-1.3-0.3c-2.1-0.5-4.1-1-6.2-1.4c-0.9-0.2-1.9-0.1-2.8,0c-2.4,0.3-3.7,1.7-4.1,4.2C21.9,58.1,21.8,58.2,21.8,58.4
		z"/>
	<path class="st0" d="M81.4,91.4c0,1.8,0,3.4,0,5.1c-0.4,0-0.7,0-1.1,0c0-1.6,0-3.3,0-5C80.6,91.5,80.9,91.4,81.4,91.4z"/>
	<path class="st0" d="M43.5,31.5c-0.2-0.1-0.4-0.2-0.7-0.3c-0.2-0.1-0.5-0.2-0.8-0.3c0,0.6,0,1.2-0.7,1.2c-0.7,0-0.7-0.6-0.7-1.1
		c-0.3,0.1-0.5,0.1-0.7,0.2c0.5,1.1,1.2,1.4,3,1.1c-0.8,0.6-1.9,0.5-2.7-0.1c-0.6-0.4-1.1-0.9-1.6-1.2c0.4-0.1,1-0.2,1.5-0.4
		C41.9,29.9,42.3,30,43.5,31.5z"/>
	<path class="st0" d="M84,74.1c0.7,0,1.3,0.6,1.3,1.3c0,0.7-0.6,1.3-1.3,1.3c-0.7,0-1.3-0.6-1.3-1.3C82.7,74.7,83.3,74.1,84,74.1z"
		/>
	<path class="st0" d="M41.9,46.7c0.6,2.4,0.6,4.8,0.2,7.3c-0.1-0.1-0.2-0.3-0.2-0.4C41.9,51.3,41.9,49,41.9,46.7z"/>
	<path class="st0" d="M81.7,89.8c-0.3,0.2-0.6,0.6-0.9,0.6c-0.2,0-0.6-0.4-0.7-0.7c-0.1-0.5,0.2-0.8,0.7-0.7c0.3,0,0.6,0.3,0.9,0.5
		C81.7,89.6,81.7,89.7,81.7,89.8z"/>
	<path class="st0" d="M45.1,42.1c1.5-1.2,4-1.2,5.4,0c-0.9-0.5-1.7-0.5-2.7-0.5C46.9,41.6,46,41.6,45.1,42.1z"/>
	<path class="st0" d="M49.7,43c-1.1,1.4-2.7,1.4-3.7,0C47.3,44,48.5,44,49.7,43z"/>
	<path class="st0" d="M45.7,31.4c0.8,1.1,0.9,2.3,0.8,3.6C46.3,33.8,46,32.6,45.7,31.4z"/>
	<path class="st0" d="M43.5,30.5c-0.8-0.3-1.6-0.6-2.4-0.9C41.9,29.3,42.8,29.6,43.5,30.5z"/>
	<path class="st0" d="M47.3,38.7c-0.4,0-0.8,0-1.1,0c0.1,0.2,0.2,0.5,0.3,0.9c-0.3-0.2-0.6-0.4-0.7-0.6c-0.1-0.1,0.1-0.5,0.3-0.6
		C46.6,38.1,47,38.4,47.3,38.7z"/>
	<path class="st0" d="M48.9,39.4c0.1-0.2,0.2-0.4,0.3-0.7c-0.4,0-0.7,0-1.1,0c0,0-0.1-0.1-0.1-0.1c0.4-0.1,0.7-0.3,1.1-0.3
		c0.2,0,0.5,0.4,0.5,0.6c0,0.2-0.4,0.4-0.5,0.6C48.9,39.5,48.9,39.4,48.9,39.4z"/>
	<path class="st0" d="M57.7,33.1c0.8,0.7,0.8,5.1,0,6.5C57.7,37.4,57.7,35.3,57.7,33.1z"/>
	<path class="st0" d="M10.7,75.3"/>
	<path class="st0" d="M9.6,80.7"/>
	<path class="st0" d="M10.1,86.1c-0.3-0.1-0.5-0.6-0.5-0.9"/>
	<path class="st0" d="M15.1,83.5"/>
	<path class="st0" d="M48.2,82.8C48.2,82.8,48.3,82.8,48.2,82.8"/>
	<path class="st0" d="M74.3,82.8"/>
	<path class="st0" d="M76.4,86.1"/>
	<path class="st0" d="M77.2,79.5"/>
	<path class="st0" d="M21,84"/>
	<path class="st0" d="M25.6,84.4"/>
	<path class="st0" d="M23.3,79.5"/>
	<path class="st0" d="M21,92.2c0.8,0.3,0.8,1.1,0.8,1.7"/>
	<path class="st0" d="M59.4,93.7c-0.8,0-1.7,0-2.5,0"/>
</g>
<g>
	<path class="st0" d="M125.7,63.6c-0.1,0.1-0.2,0.2-0.3,0.3c-1.4,1.6-3.1,2.3-5.2,2.4c-1.6,0.1-3.1-0.1-4.5-0.9
		c-1.5-0.9-2.6-2.2-3.1-3.9c-0.5-1.5-0.5-3-0.2-4.5c0.6-2.3,1.9-3.9,4.1-4.9c1.8-0.8,3.6-0.8,5.5-0.4c0.7,0.2,1.4,0.6,2,0.9
		c0.3,0.2,0.4,0.1,0.5-0.2c0.2-1,0.5-2,0.7-2.9c0.1-0.3,0-0.6-0.1-1c-0.7-1.4-1.2-3-1.4-4.6c-0.1-1.2-0.2-2.3,0-3.5
		c0.4-2.5,1.5-4.5,3.4-6.1c2-1.6,4.3-2.1,6.8-1.7c2.2,0.4,3.9,1.5,4.8,3.6c0.2,0.5,0.4,1.1,0.5,1.7c0.1,0.5,0.2,0.5,0.6,0.6
		c2,0.2,3.9,0.6,5.5,1.9c2.3,1.7,3.4,4.1,3.2,7c-0.2,3.1-1.9,5.3-4.7,6.7c-0.5,0.3-1.1,0.4-1.7,0.6c0.2,0.1,0.4,0.2,0.6,0.3
		c2,0.6,3.7,1.6,5.3,3c0.1,0.1,0.3,0.2,0.4,0.2c0.1-0.1,0.1-0.3,0.2-0.4c0.4-2.8,1.9-4.7,4.5-5.7c1.8-0.7,3.6-0.7,5.5-0.1
		c2.1,0.7,3.5,2,4.3,4.1c0.4,1,0.5,2.1,0.5,3.1c-0.1,2-0.7,3.8-2.2,5.2c-0.9,0.9-2,1.5-3.3,1.7c-0.9,0.1-1.9,0.2-2.8,0.2
		c-1,0-2-0.3-2.9-0.8c-0.2-0.1-0.3-0.1-0.5-0.1c0,0.2-0.1,0.3-0.1,0.5c0,4.3-1.7,7.8-5.3,10.2c-1.3,0.9-2.7,1.4-4.2,1.7
		c-1.3,0.3-2.7,0.4-4,0.1c-3.5-0.6-6.2-2.3-7.7-5.5c-0.4-0.8-0.5-1.8-0.8-2.7c-0.1-0.2-0.2-0.5-0.3-0.7c-1.6-1.5-2.8-3.3-3.6-5.2
		C125.8,63.6,125.8,63.6,125.7,63.6z M130.6,53.4c0-0.3,0.1-0.4,0.1-0.6c0-1.5,0-2.9,0-4.4c0-0.2,0.1-0.4,0.2-0.4
		c0.8-0.1,1.9,0,2.5,0.7c0.3,0.4,0.4,0.9,0.4,1.5c0,2.9,0,5.7,0,8.6c0,1.4,0.2,2.7,0.8,3.9c0.6,1.3,1.6,2.1,3,2.4
		c0.9,0.2,1.8,0.2,2.7,0c1-0.2,1.8-0.7,2.4-1.6c0.8-1.3,0.8-2.7,0.6-4.1c-0.2-1.2-0.9-2.2-2-2.8c-0.9-0.5-1.9-0.7-3-0.7
		c-0.6,0-1.3,0-1.9,0c-0.7,0-0.7,0-0.7-0.6c0-0.3,0-0.5,0-0.8c0-0.5,0.1-0.5,0.5-0.5c0.9,0,1.8,0,2.7,0c1-0.1,1.8-0.5,2.4-1.4
		c0.6-0.9,0.7-1.9,0.6-3c-0.1-1.3-0.8-2.2-1.9-2.7c-0.8-0.4-1.7-0.5-2.6-0.5c-1.7,0-3.4,0-5.1,0c-0.5,0-1.1-0.2-1.5-0.4
		c-0.4-0.2-0.7-0.9-0.5-1.3c0.2-0.4,0.6-0.2,0.9-0.2c0.4,0,0.8,0,1.2,0c1.2,0,2.3-0.2,3.4-0.7c2-0.9,3-2.5,3.1-4.4
		c0-0.5-0.1-0.6-0.5-0.5c-0.8,0.1-1.5,0.2-2.3,0.3c-1.5,0.3-2.9,0.9-4.2,1.7c-2.9,1.8-4.8,4.5-6.1,7.6c-0.1,0.3-0.2,0.6,0,1
		c0.9,1.3,2,2.5,3.3,3.3C129.6,53,130.1,53.2,130.6,53.4z M125.5,49.6c0,0-0.1,0-0.1,0c-0.2,1-0.4,2.1-0.7,3.1
		c-0.1,0.3,0.1,0.6,0.3,0.8c1,1,1.6,2.2,1.9,3.5c0.4,1.9,0.2,3.7-0.6,5.4c-0.3,0.5-0.3,1,0,1.5c0.8,1.6,1.7,3.1,3,4.3
		c0.1,0.1,0.2,0.1,0.3,0.2c0-0.1,0.1-0.2,0.1-0.4c0.1-0.6,0.1-1.3,0.1-1.9c0-0.3,0.2-0.5,0.5-0.5c0.3,0,0.4,0.3,0.3,0.6
		c0,0.1,0,0.2,0,0.4c-0.1,0.8-0.2,1.5-0.3,2.3c0,0.2,0.1,0.5,0.3,0.6c1.6,1.2,3.4,2,5.4,2.2c1.8,0.2,3.6,0.2,5.4-0.4
		c1.5-0.4,2.8-1.1,3.8-2.3c1.2-1.2,1.8-2.7,2.2-4.4c0.3-1.5,0.3-3-0.1-4.5c-0.1-0.5-0.3-0.9-0.5-1.3c0,0-0.1,0-0.1,0
		c0,0.1,0,0.3,0,0.4c0.2,0.9,0.2,1.8,0,2.7c-0.4,2.2-1.7,3.7-3.7,4.5c-1.4,0.6-3,0.7-4.5,0.7c-1.2,0-2.4-0.2-3.5-0.7
		c-2.3-0.9-3.5-2.7-4-5c-0.2-1.1-0.2-2.2-0.3-3.3c0-1.3,0-2.7,0-4c0-0.2,0-0.4-0.3-0.5c-1.9-0.8-3.3-2.1-4.5-3.7
		C125.8,49.8,125.7,49.7,125.5,49.6z M145.8,56.5c0,0-0.1,0.1-0.1,0.1c0,0,0.1,0.1,0.1,0.1c1.5,1.5,2.1,3.4,2.2,5.4
		c0.1,1.7-0.2,3.4-1,5c-0.9,1.8-2.2,3.1-4,3.9c-1.1,0.5-2.3,0.8-3.6,1c-2.6,0.3-5.1-0.1-7.4-1.3c-0.5-0.3-1-0.6-1.5-0.9
		c0,0.1-0.1,0.1-0.1,0.1c0,0.1,0,0.2,0,0.2c0,1,0.3,1.9,0.8,2.8c1.4,2.4,3.6,3.8,6.3,4.5c2,0.5,4,0.2,6-0.4c1.8-0.6,3.4-1.5,4.8-2.9
		c2.4-2.5,3.3-5.5,3.1-9c0-0.2-0.2-0.4-0.3-0.5c-1.4-1.2-2.2-2.7-2.3-4.5c-0.1-1.2-0.5-2-1.4-2.6c0,0-0.1-0.1-0.1-0.1
		C146.7,57.2,146.2,56.9,145.8,56.5z M125.5,48.6c0.2-0.4,0.3-0.6,0.4-0.8c0.1-0.2,0.2-0.4,0.3-0.7c1.4-2.8,3.4-5.1,6.1-6.7
		c1.4-0.8,2.9-1.4,4.6-1.6c0.6-0.1,1.2-0.1,1.8-0.2c0.2,0,0.4,0,0.3-0.3c-0.1-0.9-0.4-1.8-0.9-2.6c-1-1.5-2.4-2.3-4.2-2.7
		c-1.9-0.4-3.7-0.1-5.3,0.8c-2.7,1.4-4.2,3.7-4.6,6.7c-0.3,2.5,0,5,1.1,7.3C125.1,48,125.3,48.3,125.5,48.6z M151.8,58.7
		c0,1.2,0.2,2.4,0.7,3.5c0.6,1.2,1.4,2.1,2.7,2.3c2.3,0.4,4-0.7,4.7-3c0.5-1.7,0.5-3.5-0.2-5.2c-0.5-1.4-1.3-2.4-2.8-2.8
		c-1.5-0.4-3.4,0.2-4.3,1.6C151.9,56.1,151.7,57.3,151.8,58.7z M123.9,59c0-1.2-0.2-2.5-0.9-3.7c-1-1.9-3.2-2.6-5.1-1.7
		c-1.4,0.7-2.1,1.9-2.3,3.3c-0.3,1.6-0.2,3.2,0.4,4.7c0.5,1.2,1.2,2.2,2.5,2.6c1.7,0.5,3.7-0.1,4.5-1.6
		C123.7,61.6,123.9,60.3,123.9,59z M144,53.6C144.1,53.6,144.1,53.7,144,53.6c0.1,0,0.2,0,0.3-0.1c2.3-1.4,3.7-3.5,3.9-6.2
		c0.2-2.5-0.6-4.6-2.5-6.3c-1.7-1.5-3.7-2.1-5.8-2.2c-0.5,0-0.6,0-0.6,0.5c-0.1,1.7-0.8,3-2.1,4c-0.5,0.4-1.1,0.7-1.7,1
		c0.2,0,0.3,0,0.5,0c0.8,0,1.6,0,2.4,0c1.6,0,3.2,0.3,4.6,1.1c2.5,1.4,3,4.1,2.1,6.5C144.8,52.6,144.4,53.1,144,53.6z"/>
	<path class="st0" d="M193.6,54.1c0-0.6,0-1.2,0-1.7c0-0.1,0.1-0.2,0.2-0.2c1.1-0.4,2.2-0.8,3.2-1.3c1.5-0.7,2.9-1.7,4-3.1
		c0.2-0.2,0.4-0.4,0.7-0.3c0.5,0,1,0,1.5,0c0.1,0,0.3,0.1,0.4,0.1c-0.1,0.1-0.1,0.3-0.2,0.4c-0.8,1.1-1.9,2-3.1,2.7
		c-0.4,0.3-0.9,0.5-1.5,0.8c0.2,0.1,0.4,0.1,0.5,0.2c0.8,0.2,1.7,0.3,2.4,0.6c1.5,0.6,2.3,1.7,2.5,3.2c0.1,0.9,0.2,1.7,0.2,2.6
		c0,2.5,0,5,0,7.5c0,0.4-0.1,0.6-0.5,0.5c-0.5,0-0.9-0.1-1.4-0.2c-0.5-0.1-0.8-0.5-1-1c-0.1-0.3-0.2-0.3-0.5-0.1
		c-1.7,1.6-3.7,1.8-5.9,1.3c-1.1-0.2-2-0.7-2.5-1.7c-1.1-2.1-0.7-4.7,1.7-6c1.3-0.7,2.8-0.9,4.3-1c0.7,0,1.5,0,2.2,0
		c0.4,0,0.5-0.1,0.5-0.5c0-0.8-0.1-1.5-0.5-2.2c-0.6-1-1.5-1.3-2.6-1.4c-1.4-0.1-2.7,0.1-4,0.6C194.2,53.9,193.9,54,193.6,54.1z
		 M199.9,59C199.9,59,199.9,59,199.9,59c-0.8,0-1.5,0-2.3,0.2c-1,0.2-1.9,0.6-2.2,1.7c-0.3,1-0.3,1.9,0.3,2.8
		c0.3,0.4,0.7,0.7,1.2,0.8c0.7,0.1,1.4,0.1,2.1-0.2c1.1-0.5,2-1.2,2.2-2.4c0.2-0.8,0.1-1.7,0.1-2.6c0-0.1-0.2-0.3-0.3-0.3
		C200.7,59,200.3,59,199.9,59z"/>
	<path class="st0" d="M221,59c0-2.3,0.7-4.3,2.5-5.8c0.9-0.8,2-1.3,3.3-1.5c1.3-0.3,2.7-0.3,4,0.1c2.1,0.6,3.6,1.8,4.4,3.8
		c1,2.5,0.9,5-0.5,7.4c-0.8,1.4-2,2.3-3.6,2.8c-1.4,0.5-2.8,0.6-4.1,0.4c-2.7-0.4-4.6-1.8-5.5-4.4C221.1,60.9,221,59.9,221,59z
		 M224.1,58.6c0,1.4,0.2,2.7,0.9,3.8c1.1,2.1,3.7,2.7,5.6,1.4c1.1-0.7,1.6-1.8,1.8-3c0.3-1.6,0.2-3.3-0.4-4.8
		c-0.7-1.7-2.1-2.8-4.1-2.7c-1.3,0.1-2.3,0.7-3,1.8C224.3,56.2,224.1,57.4,224.1,58.6z"/>
	<path class="st0" d="M165.6,55c0-2.4,0-4.7,0-7.1c0-0.6,0-0.6,0.6-0.6c0.4,0,0.9,0.1,1.3,0.2c0.8,0.2,1.1,0.8,1.2,1.6
		c0,0.7,0,1.5,0,2.2c0,0.7,0,0.7,0.7,0.7c1.1,0,2.2,0,3.3,0c0.3,0,0.5,0.1,0.4,0.4c0,0.3,0,0.6,0,0.9c0,0.3-0.1,0.4-0.4,0.4
		c-1.1,0-2.3,0-3.4,0c-0.4,0-0.5,0.1-0.5,0.5c0,2.6,0,5.2,0,7.8c0,0.4,0.1,0.7,0.2,1.1c0.2,0.9,0.9,1.3,1.7,1.3c0.6,0,1.3-0.1,2-0.2
		c0.3,0,0.4,0,0.5,0.3c0.1,0.3,0.2,0.6,0.2,0.9c0,0.1-0.1,0.4-0.3,0.4c-1.4,0.4-2.8,0.4-4.2,0.1c-1.2-0.2-2.1-0.8-2.6-1.9
		c-0.4-0.7-0.6-1.5-0.6-2.3C165.6,59.6,165.6,57.3,165.6,55C165.6,55,165.6,55,165.6,55z"/>
	<path class="st0" d="M191.1,53.8c-0.7-0.2-1.3-0.3-1.9-0.4c-1.9-0.3-3.6,0-4.7,1.7c-0.5,0.7-0.7,1.5-0.9,2.4
		c-0.3,1.8-0.1,3.5,0.7,5.1c0.7,1.3,1.8,1.9,3.2,2c1.1,0.1,2.1-0.1,3.1-0.5c0.3-0.1,0.5,0,0.5,0.3c0.1,0.3,0.1,0.5,0.2,0.8
		c0.1,0.4-0.1,0.6-0.4,0.7c-0.7,0.2-1.3,0.4-2,0.4c-1.4,0.1-2.7,0.2-4.1-0.2c-2-0.5-3.5-1.7-4.2-3.7c-0.6-1.6-0.7-3.3-0.4-4.9
		c0.4-2.4,1.8-4.3,4.2-5.2c1.6-0.7,3.3-0.8,5.1-0.5c0.4,0.1,0.8,0.2,1.2,0.3c0.1,0,0.3,0.1,0.3,0.2
		C191.1,52.7,191.1,53.2,191.1,53.8z"/>
	<path class="st0" d="M214.2,53.5c-0.7,0-1.4-0.1-2-0.1c-1.4,0-2.2,0.8-2.2,2.2c0,3.2,0,6.4,0,9.5c0,0.6,0,0.6-0.6,0.6
		c-0.7,0-1.4,0-2.1,0c-0.3,0-0.4-0.1-0.4-0.4c0-3.3,0-6.5,0.1-9.8c0.1-1.8,1.2-3.3,3.2-3.8c1.2-0.3,2.4-0.3,3.6-0.1
		c0.3,0,0.4,0.2,0.4,0.5C214.2,52.7,214.2,53.1,214.2,53.5z"/>
	<path class="st0" d="M178.1,58.9c0,2.2,0,4.3,0,6.5c0,0.4-0.1,0.5-0.5,0.5c-0.7,0-1.4,0-2.1,0c-0.4,0-0.5-0.1-0.5-0.5
		c0-4.3,0-8.7,0-13c0-0.3,0.1-0.4,0.4-0.4c0.7,0,1.5,0,2.2,0c0.4,0,0.5,0.1,0.5,0.5C178.1,54.6,178.1,56.7,178.1,58.9
		C178.1,58.9,178.1,58.9,178.1,58.9z"/>
	<path class="st0" d="M218.8,58.9c0,2.1,0,4.3,0,6.4c0,0.5,0,0.6-0.5,0.6c-0.7,0-1.4,0-2.1,0c-0.4,0-0.5-0.1-0.5-0.5
		c0-1.8,0-3.6,0-5.4c0-2.5,0-5,0-7.5c0-0.5,0-0.5,0.5-0.5c0.7,0,1.4,0,2.1,0c0.4,0,0.5,0.1,0.5,0.5
		C218.8,54.5,218.8,56.7,218.8,58.9C218.8,58.9,218.8,58.9,218.8,58.9z"/>
	<path class="st0" d="M130.4,53.7c0.3,0.1,0.3,0.3,0.3,0.5c0,1.3,0,2.7,0,4c0,1.1,0.1,2.2,0.3,3.3"/>
	<path class="st0" d="M125,53.5c-0.2-0.2-0.4-0.5-0.3-0.8c0.2-1,0.4-2.1,0.7-3.1c0,0,0.1,0,0.1,0c0.1,0.1,0.2,0.2,0.3,0.4"/>
	<path class="st0" d="M129.7,68.1c0,0.1-0.1,0.2-0.1,0.4c-0.1-0.1-0.2-0.1-0.3-0.2c-1.3-1.3-2.2-2.7-3-4.3c-0.3-0.5-0.3-1,0-1.5"/>
	<path class="st0" d="M130.3,65.6"/>
</g>
<g>
	<path class="st0" d="M341.1,52.1c0-2.5,0-5,0-7.5c1.3,0,2.7,0,4,0c0,3.6,0,7.3,0,10.9c0,3.6,0,7.2,0,10.9c-1.2,0-2.5,0-3.8,0
		c0-0.7,0-1.4,0-2.2c-0.2,0.1-0.2,0.2-0.3,0.3c-1.6,1.7-3.6,2.4-5.8,2.3c-1.4-0.1-2.8-0.3-3.9-1.2c-1.5-1.1-2.4-2.7-2.8-4.5
		c-0.5-2.4-0.4-4.8,0.7-7c1-2,2.7-3.2,4.9-3.6c1.3-0.2,2.6-0.2,3.8,0c1.2,0.2,2.2,0.8,3,1.6C341,52,341,52.1,341.1,52.1
		C341.1,52.1,341.1,52.1,341.1,52.1z M341.4,57.8c-0.1-0.5-0.2-1.4-0.3-2.3c-0.2-1-0.6-1.8-1.3-2.5c-1.7-1.7-5.8-1.6-7,1.8
		c-0.8,2.3-0.8,4.6-0.2,6.9c0.3,1.1,0.9,2,1.9,2.5c0.9,0.5,1.8,0.5,2.8,0.4c1.4-0.1,2.5-0.9,3.2-2.1
		C341.2,61.2,341.3,59.7,341.4,57.8z"/>
	<path class="st0" d="M259.3,66.4c-1.4,0-2.7,0-4.1,0c0-7.3,0-14.5,0-21.8c1.3,0,2.7,0,4,0c0,2.6,0,5.3,0,8c0.3-0.3,0.6-0.6,1-0.8
		c1-0.8,2.1-1.3,3.4-1.4c1.6-0.2,3.1-0.2,4.6,0.3c1,0.3,1.9,0.8,2.6,1.6c0.6,0.7,0.8,1.6,0.8,2.5c0,2.7,0,5.3,0,8c0,1.2,0,2.4,0,3.7
		c-1.3,0-2.6,0-4,0c0-0.3,0.1-0.7,0.1-1c0-3.3,0-6.6,0-9.8c0-1.8-0.8-2.7-2.5-3c-1.1-0.2-2.3-0.2-3.4,0.2c-1.6,0.5-2.5,1.7-2.5,3.3
		c0,3.2,0,6.3,0,9.5C259.2,65.8,259.2,66.1,259.3,66.4z"/>
	<path class="st0" d="M290.1,66.4c-1.4,0-2.7,0-4.1,0c0-5.2,0-10.5,0-15.7c1.3,0,2.6,0,3.9,0c0,0.7,0,1.3,0,2.1
		c0.1-0.1,0.2-0.2,0.3-0.2c1.2-1.4,2.7-2,4.5-2.2c1.5-0.2,2.9-0.1,4.4,0.3c1.5,0.5,2.7,1.2,3.2,2.8c0.2,0.5,0.2,1.1,0.2,1.6
		c0,2.6,0,5.1,0,7.7c0,1.2,0,2.4,0,3.7c-1.3,0-2.7,0-4,0c0-1.5,0-2.9,0-4.4c0-2.1,0-4.2,0-6.3c0-1.8-0.9-2.8-2.6-3.1
		c-1.2-0.2-2.4-0.2-3.6,0.2c-1.4,0.5-2.4,1.8-2.4,3.3c0,3.2,0,6.3,0,9.5C290,65.8,290.1,66,290.1,66.4z"/>
	<path class="st0" d="M315.9,66.6c-1.8,0-3.6-0.2-5.3-1.1c-2.2-1.2-3.5-3-3.9-5.4c-0.3-1.7-0.3-3.5,0.5-5.1c0.9-2.1,2.5-3.4,4.6-4.1
		c1.8-0.6,3.6-0.7,5.4-0.5c1.3,0.1,2.6,0.4,3.7,1.1c2.2,1.2,3.6,3.1,4,5.6c0.2,1.7,0.2,3.3-0.5,4.8c-0.8,2-2.4,3.4-4.4,4.2
		C318.7,66.5,317.3,66.7,315.9,66.6z M310.6,58.4c0.1,0.9,0.2,1.9,0.4,2.8c0.4,1.7,1.2,3.1,3,3.8c1,0.4,2,0.5,3,0.2
		c1.7-0.4,2.7-1.6,3.2-3.1c0.7-1.9,0.8-3.8,0.4-5.7c-0.2-1.1-0.6-2.2-1.3-3.1c-1-1.3-2.3-1.8-3.9-1.7c-1.6,0.1-2.9,0.8-3.8,2.2
		C311,55.2,310.7,56.8,310.6,58.4z"/>
	<path class="st0" d="M365.6,63.4c0.2,0.7,0.4,1.3,0.6,1.9c-0.3,0.1-0.6,0.3-0.9,0.4c-2.7,1-5.6,1.1-8.4,0.8
		c-1.3-0.2-2.5-0.5-3.7-1.1c-2.2-1.2-3.5-2.9-3.9-5.4c-0.2-1.8-0.1-3.5,0.7-5.2c0.9-1.9,2.4-3.2,4.4-3.9c2.3-0.8,4.7-0.9,7-0.3
		c3.2,0.7,5.2,3,5.6,6.2c0.2,1.2,0.2,1.2-1,1.2c-4.1,0-8.2,0-12.3,0c-0.5,0-0.5,0-0.5,0.5c0,1.2,0.2,2.3,0.6,3.4
		c0.8,2,2.3,2.9,4.4,3.2c2.5,0.4,4.9-0.1,7.1-1.5C365.4,63.5,365.4,63.4,365.6,63.4z M362.9,56.5c-0.1-1.8-0.6-3.3-2.2-4.2
		c-1.7-1-3.4-0.9-5.1,0.1c-1.5,0.9-2.1,2.4-2.3,4.1C356.6,56.5,359.7,56.5,362.9,56.5z"/>
	<path class="st0" d="M276.7,50.6c1.3,0,2.5,0,3.8,0c0.1,0,0.1,0,0.2,0c0,5.3,0,10.5,0,15.7c-1.3,0-2.7,0-4,0
		C276.7,61.1,276.7,55.9,276.7,50.6z"/>
	<path class="st0" d="M278.9,49.2c-0.6-0.1-1.1-0.2-1.6-0.3c-0.5-0.1-0.9-0.5-0.9-1.1c0-0.5,0.2-0.9,0.7-1.1c1.2-0.5,2.3-0.5,3.5,0
		c0.4,0.2,0.7,0.5,0.7,1c0,0.5-0.3,0.9-0.7,1.1C280,49,279.3,49.1,278.9,49.2z"/>
</g>
<text transform="matrix(1 0 0 1 381.5 65.8486)" class="st0 st1 st2">CreatD</text>
<g>
	<path class="st0" d="M5.4,144.5c0.3-0.8,0.5-1.6,0.8-2.4c1.9-4.7,8.3-7.5,13.2-6.5c0.4,0.1,0.8,0.3,1.5,0.7
		c-0.7,0.2-1.1,0.3-1.4,0.3c-2.8,0.4-5.4,1.4-7.3,3.5c-0.9,1-1.6,2.2-2,3.5c-1,3.3,0.6,6.1,3.9,6.8c5.7,1.2,11,0,15.2-4.3
		c1-1,1.7-2.4,2.2-3.7c1.1-2.9,0.5-5.6-1.9-7.7c-1.1-1-2.4-1.8-3.6-2.7c-1.4-1.1-3-2-4.3-3.2c-3.5-3.2-3.3-7.2,0.3-10.2
		c3.2-2.7,6.9-3.8,11-3.9c2-0.1,4.1,0.2,6.1,0.6c1.1,0.2,2.2,0.8,3.1,1.5c2.4,1.8,2.5,4.8,0.2,6.8c-2.3,1.9-5,2.6-8.1,2.1
		c-0.2,0-0.5-0.1-0.7-0.2c-0.1,0-0.2-0.2-0.5-0.4c0.5-0.1,1-0.1,1.3-0.2c1.5-0.6,3-1.1,4.3-1.9c1.3-0.8,2-2.1,1.7-3.8
		c-0.3-1.6-1.5-2.5-3-2.8c-3.9-0.8-7.6-0.5-11,1.6c-0.5,0.3-0.9,0.7-1.3,1.1c-2.3,2.2-2.4,5.1-0.1,7.4c1.1,1,2.4,1.8,3.6,2.7
		c1.6,1.1,3.3,2,4.8,3.2c3.8,3,4.6,7.3,2.2,11.6c-2.1,3.6-5.2,5.9-8.9,7.5c-4.1,1.8-8.4,2.4-12.8,1.7c-4.2-0.7-7.5-2.5-8.6-7
		C5.4,145.5,5.4,145,5.4,144.5z"/>
	<path class="st0" d="M43.8,166c-0.7-0.3-1.4-0.5-2-0.9c-1-0.7-1.7-1.6-1.1-3c0.2,0.1,0.4,0.1,0.6,0.2c2.3,1.8,4.5,2.2,7,0.5
		c1.8-1.2,3.7-2.8,4.9-4.6c2.4-3.7,4.5-7.7,6.6-11.6c1.5-2.9,2.7-5.9,4.1-9.1c-1.4,0.3-2.4,0.5-3.7,0.8c0.7-2,2.1-2.9,3.8-3.3
		c0.9-0.3,1.4-0.8,1.8-1.6c2-3.8,3.9-7.7,6.3-11.3c1.4-2.1,3.5-3.8,5.5-5.4c1.8-1.4,4.1-2,6.4-1.8c1.1,0.1,2.2,0.6,3.2,1.2
		c0.7,0.5,1.2,1.3,0.5,2.2c-1.1-0.5-2-1.1-3.1-1.3c-2-0.4-3.9,0.2-5.4,1.5c-1.2,1-2.4,2.2-3.3,3.4c-2.8,3.7-4.7,7.9-6.7,12.2
		c1.8,0.4,3.8,0.4,4.5,3c-1.3,0-2.5,0.1-3.6,0c-1.5-0.1-2.4,0.4-3.1,1.9c-2.4,5.2-4.9,10.4-7.7,15.4c-1.4,2.6-3.4,4.8-5.4,7
		c-2,2.3-4.6,3.9-7.7,4.4c-0.2,0-0.4,0.2-0.6,0.3C44.9,166,44.3,166,43.8,166z"/>
	<path class="st0" d="M54.8,136.1c-5.7,0.5-9.5,3.7-12.6,8c-0.6,0.8-1,1.8-1.3,2.8c-0.3,1,0.3,1.5,1.2,1.2c1-0.4,2.1-0.8,2.8-1.5
		c2.5-2.5,4.8-5.1,7.1-7.6c0.4-0.5,0.6-1.7,1.6-1c0.9,0.6,1.5,1.4,1.2,2.6c-0.5,1.8-1.1,3.5-1.4,5.3c-0.3,1.9-0.2,3.8,1.5,5.1
		c-1.7,0.3-3.5-0.7-4-2.4c-0.4-1.6-0.3-3.3-0.5-5c-1.3,1.3-2.5,2.8-3.9,3.9c-1.6,1.2-3.4,2.4-5.3,3c-2.9,1-4.6-0.7-4-3.7
		c0.1-0.3,0.1-0.6,0.3-0.9c2.5-5.7,6.7-9.6,12.9-11C52,134.4,53.6,134.4,54.8,136.1z"/>
	<path class="st0" d="M110.5,136.1c-5.7,0.5-9.5,3.7-12.6,7.9c-0.4,0.6-0.8,1.2-1,1.8c-0.2,0.7-0.1,1.4-0.1,2.1
		c0.7-0.1,1.6,0,2.1-0.3c2-1.5,3.9-3.1,5.6-4.8c1.2-1.2,2.1-2.6,3.3-3.9c0.4-0.4,1-0.7,1.5-1c0.4,0.8,1.1,1.6,1.3,2.5
		c0.1,0.6-0.4,1.3-0.6,2c-0.3,1.6-0.9,3.2-0.8,4.8c0,1.3,0.7,2.7,1.1,3.9c-2.8,0.2-3.8-1.7-4-7.8c-0.2,0.3-0.4,0.7-0.7,1
		c-1.6,1.5-3.2,3.1-4.9,4.4c-1,0.8-2.3,1.4-3.5,1.7c-3.1,0.9-4.8-0.8-4.1-3.9c1.3-5.4,8.3-11.5,13.9-11.9
		C108.2,134.6,109.5,134.7,110.5,136.1z"/>
	<path class="st0" d="M83.1,134.5c2.2,0.4,2.6,1.6,2,8.3c0.9-1.2,1.6-2.4,2.5-3.4c1.1-1.3,2.4-2.6,3.7-3.6c1.4-1.1,3-1,3.7-0.1
		c0.8,1.1,0.5,2.9-0.8,4.1c-0.3,0.3-0.7,0.5-1,0.7c-0.2-0.1-0.3-0.2-0.3-0.2c-0.5-1.9-1.3-2.2-2.8-0.9c-1.3,1.2-2.4,2.5-3.4,3.9
		c-1.3,2.1-2.5,4.3-3.5,6.6c-0.5,1.1-1.3,1.1-1.8,0.3c-0.5-0.7-0.8-1.8-0.7-2.7c0.2-1.7,1-3.2,1.3-4.9
		C82.4,139.8,82.7,137.1,83.1,134.5z"/>
	<path class="st0" d="M76.1,152.1c-2.7,0.1-4.7-1.7-4.6-4.1c0.1-1.8,0.4-3.8,1.1-5.4c1.1-2.4,2.6-4.6,3.9-6.8c0.2-0.3,1-0.8,1.2-0.6
		c0.4,0.4,1,1,1,1.5c-0.1,0.9-0.5,1.8-0.9,2.6c-1.5,2.5-2.8,5.1-3.2,8C74.3,149.5,74.6,150.5,76.1,152.1z"/>
	<path class="st0" d="M78.7,132.6c0-1.9,1.4-3.6,2.7-3.6c0.9,0,1.4,0.4,1.4,1.3c0,1.4-1.7,3.3-2.9,3.1
		C79.4,133.3,79,132.7,78.7,132.6z"/>
</g>
</svg>
